<svg width="185" height="183" viewBox="0 0 185 183" fill="none" xmlns="http://www.w3.org/2000/svg">
<path d="M92.9649 0C103.917 0 112.865 9.12205 112.865 20.3039C112.865 31.4858 103.946 40.6078 92.9649 40.6078C81.9834 40.6078 73.0646 31.4858 73.0646 20.3039C73.0646 9.12205 82.0125 0 92.9649 0Z" fill="white"/>
<path d="M20.5103 65.5905C20.4522 65.9436 20.4231 66.179 20.4231 66.3261C20.4231 67.3854 21.0042 68.1505 22.1662 68.6802C23.3573 69.1804 25.1585 69.4452 27.6279 69.4452C29.5163 69.4452 30.9688 69.2393 32.0437 68.8273C33.1187 68.4153 33.6416 67.8268 33.6416 67.0912C33.6416 65.973 31.5208 65.0902 27.3374 64.384C26.8435 64.2957 26.4659 64.2369 26.2334 64.2074C25.972 64.1486 25.5653 64.0897 25.0423 64.0014C18.3605 62.8833 14.0609 61.6768 12.1435 60.3821C11.2138 59.7347 10.5166 58.999 10.0227 58.1457C9.55788 57.2923 9.32547 56.3213 9.32547 55.2325C9.32547 52.5842 10.8652 50.5538 13.9447 49.1708C17.0241 47.7877 21.5271 47.0815 27.4246 47.0815C33.322 47.0815 37.5926 47.7289 40.4106 49.0236C43.2286 50.3184 44.623 52.3193 44.623 55.0265V55.3502H33.5544V55.2325C33.5544 54.2909 33.0024 53.6141 31.8694 53.1138C30.7364 52.643 29.1095 52.3782 26.9307 52.3782C25.2457 52.3782 23.9384 52.5547 23.0668 52.8784C22.1372 53.2315 21.7014 53.7024 21.7014 54.3203C21.7014 55.4385 24.1127 56.4096 28.9352 57.1746C29.8649 57.3218 30.5912 57.4395 31.1141 57.5277C34.5422 58.1163 37.0116 58.6165 38.4641 59.0285C39.9167 59.4404 41.1659 59.9407 42.2408 60.4998C43.4029 61.1471 44.3325 61.9711 44.9717 62.9715C45.6108 63.972 45.9304 65.0608 45.9304 66.2672C45.9304 69.0039 44.2454 71.0931 40.9045 72.5938C37.5635 74.0651 32.741 74.8008 26.4659 74.8008C20.1907 74.8008 15.7459 74.0946 12.986 72.6821C10.197 71.2697 8.83159 69.0039 8.83159 65.8553V65.4433H20.5103V65.5905ZM50.8401 47.4935H82.4191V53.2904H62.6931V57.5866H80.9084V63.3247H62.6931V68.533H83.1454V74.4182H50.8401V47.4935ZM88.1132 74.3888V47.4935H103.104L119.169 65.561V47.4935H130.557V74.3888H114.986L99.4432 56.2624V74.3888H88.0841H88.1132ZM161.178 63.6483L155.513 53.8789L149.528 63.6483H161.207H161.178ZM131.226 74.3888L149.586 47.4935H162.746L180.265 74.3888H167.075L164.402 69.5335H146.013L143.166 74.3888H131.226Z" fill="white"/>
<path d="M35.0942 169.258L24.4904 159.165L56.7376 102.402C58.4807 99.3126 56.3018 95.4284 52.7866 95.4284H0V81.2156H84.9466L35.0942 169.258Z" fill="white"/>
<path d="M149.906 169.258L160.51 159.165L128.262 102.402C126.519 99.3126 128.698 95.4284 132.213 95.4284H185V81.2156H100.053L149.906 169.258Z" fill="white"/>
<path d="M92.3837 96.2229L92.4999 96.0169L140.377 176.291L127.652 183L96.7996 130.592C94.9693 127.503 90.5825 127.503 88.7813 130.592C78.4971 148.189 58.132 183 58.132 183L45.698 176.762C45.698 176.762 89.8272 100.637 92.3837 96.2229Z" fill="white"/>
</svg>
